Coordinates
version=1
nRows=12
nColumns=24
inDegrees=yes

Units are S.I. units (second, meters, Newtons, ...)
Angles are in degrees.

endheader
time	pelvis_tilt	pelvis_list	pelvis_rotation	pelvis_tx	pelvis_ty	pelvis_tz	hip_flexion_r	hip_adduction_r	hip_rotation_r	knee_angle_r	ankle_angle_r	subtalar_angle_r	mtp_angle_r	hip_flexion_l	hip_adduction_l	hip_rotation_l	knee_angle_l	ankle_angle_l	subtalar_angle_l	mtp_angle_l	lumbar_extension	lumbar_bending	lumbar_rotation
      4.78500000	     14.15285418	     -7.19949675	     -9.29668707	      1.42459324	      0.72026599	     -0.23204961	    -36.22059955	      1.71190186	     -5.38091083	    -15.49953756	     28.49227877	     35.15775938	      0.00000000	     17.25988920	     -6.86350105	    -11.98153287	    -13.73698722	     19.42342378	      3.99605088	      0.00000000	    -32.59900722	      3.75611308	     19.38563085
      4.79000000	     14.04618614	     -6.82493711	     -9.63202428	      1.43386062	      0.71970572	     -0.23232278	    -35.89859089	      0.87214051	     -5.75153548	    -17.15229185	     27.41668097	     35.59664992	      0.00000000	     17.38414242	     -6.45089659	    -11.95668252	    -14.59418112	     18.56809389	      2.83005945	      0.00000000	    -32.41230868	      3.26008236	     19.38075138
      4.79500000	     13.95533250	     -6.36780455	     -9.82646893	      1.44311569	      0.71921258	     -0.23275470	    -35.49877613	      0.02054923	     -6.29624988	    -18.93111777	     26.10928430	     36.05109335	      0.00000000	     17.54286967	     -5.88883862	    -11.65371760	    -15.56994163	     17.60616207	      1.48665698	      0.00000000	    -32.23087835	      2.74319709	     19.20139243
      4.80000000	     13.88685693	     -5.85056623	     -9.98135414	      1.45232279	      0.71882871	     -0.23325815	    -35.02253446	     -0.87211614	     -6.83094969	    -20.83214704	     24.62813824	     36.32670931	      0.00000000	     17.70389943	     -5.23765183	    -11.26583412	    -16.64789795	     16.60508219	      0.13125138	      0.00000000	    -32.07631933	      2.17849545	     18.98120192
      4.80500000	     13.83748479	     -5.27744021	    -10.07963639	      1.46145965	      0.71855567	     -0.23383955	    -34.45787772	     -1.79118187	     -7.36610910	    -22.86523517	     22.97268837	     36.42740664	      0.00000000	     17.86917924	     -4.49487121	    -10.77554370	    -17.80575244	     15.59878385	     -1.21820612	      0.00000000	    -31.95081861	      1.57562516	     18.71281647
      4.81000000	     13.80419434	     -4.65169684	    -10.13912004	      1.47052263	      0.71839480	     -0.23448607	    -33.80712392	     -2.74195310	     -7.87283385	    -25.00935420	     21.16969408	     36.31904888	      0.00000000	     18.02938730	     -3.66851828	    -10.22425234	    -19.01195255	     14.62795977	     -2.51391697	      0.00000000	    -31.85313502	      0.93302767	     18.41101303
      4.81500000	     13.78336471	     -3.97662747	    -10.17118182	      1.47950319	      0.71834732	     -0.23518387	    -33.07011782	     -3.72342967	     -8.32418912	    -27.24605612	     19.26588206	     35.97174493	      0.00000000	     18.17665201	     -2.76649929	     -9.65183718	    -20.23367768	     13.72050006	     -3.72260343	      0.00000000	    -31.77939843	      0.24957122	     18.08484642
      4.82000000	     13.77608678	     -3.26134768	    -10.17318682	      1.48839195	      0.71841225	     -0.23591713	    -32.25293143	     -4.72390067	     -8.72388525	    -29.55891620	     17.29522154	     35.39088326	      0.00000000	     18.30029383	     -1.79941921	     -9.06307053	    -21.44662044	     12.93316154	     -4.82335267	      0.00000000	    -31.73562247	     -0.46882960	     17.74281541
      4.82500000	     13.78285734	     -2.50818633	    -10.16841573	      1.49718033	      0.71860433	     -0.23665098	    -31.36250155	     -5.74463683	     -9.03639320	    -31.91858617	     15.35669046	     34.51390566	      0.00000000	     18.38532646	     -0.78764028	     -8.54225792	    -22.62208959	     12.26180635	     -5.73211711	      0.00000000	    -31.72237745	     -1.22592578	     17.39741865
      4.83000000	     13.78973947	     -1.72761642	    -10.14919699	      1.50586951	      0.71890267	     -0.23740443	    -30.39262941	     -6.77149196	     -9.27315714	    -34.30281017	     13.49829156	     33.41291270	      0.00000000	     18.43350664	      0.26932280	     -8.03906141	    -23.72427724	     11.74496430	     -6.54130898	      0.00000000	    -31.72495551	     -2.00493263	     17.04507612
      4.83500000	     13.80743498	     -0.92898256	    -10.11659543	      1.51445499	      0.71931839	     -0.23814317	    -29.36547931	     -7.78965456	     -9.42561427	    -36.68523569	     11.78564899	     32.07607658	      0.00000000	     18.42499430	      1.34663773	     -7.61072299	    -24.73920467	     11.40598934	     -7.16329571	      0.00000000	    -31.75509342	     -2.80175346	     16.69459028
      4.84000000	     13.79847497	     -0.12249389	    -10.08358974	      1.52294964	      0.71982528	     -0.23887724	    -28.24513175	     -8.78315005	     -9.45316339	    -39.04618184	     10.28463311	     30.55813381	      0.00000000	     18.38030035	      2.43936590	     -7.20151998	    -25.62849570	     11.24454527	     -7.75050506	      0.00000000	    -31.76976018	     -3.59620681	     16.33317871
